<?xml version="1.0" standalone="no"?>
<!DOCTYPE svg PUBLIC "-//W3C//DTD SVG 20010904//EN"
 "http://www.w3.org/TR/2001/REC-SVG-20010904/DTD/svg10.dtd">
<svg version="1.0" xmlns="http://www.w3.org/2000/svg"
 width="2000.000000pt" height="2000.000000pt" viewBox="0 0 2000.000000 2000.000000"
 preserveAspectRatio="xMidYMid meet">
<metadata>
Created by potrace 1.15, written by Peter Selinger 2001-2017
</metadata>
<g transform="translate(0.000000,2000.000000) scale(0.100000,-0.100000)"
fill="#000000" stroke="none">
<path d="M3230 19205 c-340 -41 -633 -130 -940 -286 -742 -375 -1291 -1093
-1455 -1904 -59 -290 -55 222 -55 -7015 0 -5757 2 -6652 15 -6760 40 -347 128
-639 286 -950 379 -750 1097 -1294 1925 -1460 268 -53 -183 -50 6994 -50 7177
0 6726 -3 6994 50 1094 220 1956 1082 2176 2176 53 268 50 -183 50 6994 0
5757 -2 6652 -15 6760 -97 830 -545 1557 -1240 2012 -287 189 -644 335 -972
398 -276 53 174 50 -7008 49 -5333 -1 -6671 -4 -6755 -14z m12355 -3140 l0
-1250 -770 -5 c-826 -6 -834 -7 -1010 -61 -231 -70 -364 -217 -416 -460 -18
-83 -22 -149 -29 -574 -5 -264 -9 -632 -9 -817 l-1 -338 1125 0 c619 0 1125
-1 1125 -3 0 -1 -58 -558 -130 -1237 -71 -679 -130 -1240 -130 -1247 0 -11
-194 -13 -995 -13 l-995 0 0 -3630 0 -3630 -1485 0 -1485 0 -2 3628 -3 3627
-742 3 -743 2 0 1250 0 1250 745 0 745 0 0 898 c0 497 5 962 10 1042 120 1720
933 2601 2575 2785 251 28 446 32 1540 31 l1080 -1 0 -1250z"/>
</g>
</svg>
