<?xml version="1.0" standalone="no"?>
<!DOCTYPE svg PUBLIC "-//W3C//DTD SVG 20010904//EN"
 "http://www.w3.org/TR/2001/REC-SVG-20010904/DTD/svg10.dtd">
<svg version="1.0" xmlns="http://www.w3.org/2000/svg"
 width="225.000000pt" height="225.000000pt" viewBox="0 0 225.000000 225.000000"
 preserveAspectRatio="xMidYMid meet">
<metadata>
Created by potrace 1.15, written by Peter Selinger 2001-2017
</metadata>
<g transform="translate(0.000000,225.000000) scale(0.100000,-0.100000)"
fill="#000000" stroke="none">
<path d="M988 2184 c-718 -111 -1119 -876 -803 -1531 193 -398 625 -640 1065
-594 262 27 447 105 612 260 222 208 338 539 308 876 -5 55 -9 106 -10 113 0
9 -108 12 -505 12 l-505 0 0 -205 0 -205 295 0 295 0 -6 -27 c-25 -104 -98
-221 -178 -284 -108 -87 -239 -129 -401 -129 -190 0 -321 54 -456 189 -70 70
-94 102 -128 172 -94 196 -94 392 1 589 33 69 56 101 127 171 94 93 182 145
296 174 76 19 234 19 308 0 71 -19 169 -67 223 -110 l41 -34 148 149 149 149
-25 21 c-161 138 -355 223 -564 249 -113 14 -177 13 -287 -5z"/>
</g>
</svg>
