<?xml version="1.0" standalone="no"?>
<!DOCTYPE svg PUBLIC "-//W3C//DTD SVG 20010904//EN"
 "http://www.w3.org/TR/2001/REC-SVG-20010904/DTD/svg10.dtd">
<svg version="1.0" xmlns="http://www.w3.org/2000/svg"
 width="225.000000pt" height="225.000000pt" viewBox="0 0 225.000000 225.000000"
 preserveAspectRatio="xMidYMid meet">
<metadata>
Created by potrace 1.15, written by Peter Selinger 2001-2017
</metadata>
<g transform="translate(0.000000,225.000000) scale(0.100000,-0.100000)"
fill="#000000" stroke="none">
<path d="M969 1985 c-184 -35 -323 -109 -459 -245 -141 -141 -212 -278 -246
-473 -76 -436 207 -873 641 -989 114 -30 326 -30 440 0 300 80 547 327 627
627 30 114 30 326 0 440 -80 300 -331 550 -627 626 -106 27 -276 33 -376 14z
m256 -274 c17 -5 46 -12 66 -15 85 -14 135 -114 126 -252 -4 -66 -2 -85 11
-98 14 -14 15 -24 4 -72 -6 -30 -22 -68 -35 -84 -16 -18 -26 -46 -30 -81 -4
-35 -18 -72 -43 -112 -35 -56 -36 -63 -31 -124 7 -87 23 -102 176 -163 122
-49 202 -93 235 -129 16 -18 15 -21 -28 -61 -150 -141 -335 -212 -551 -212
-216 0 -388 66 -560 216 -39 34 -39 35 -21 55 35 38 113 82 236 131 152 60
167 73 175 154 7 59 5 65 -34 139 -29 56 -41 90 -41 121 0 32 -6 48 -25 66
-40 38 -62 154 -31 166 10 4 12 22 8 74 -6 88 2 128 36 178 58 86 144 126 257
118 39 -3 84 -10 100 -15z"/>
</g>
</svg>
